<?xml version="1.0" encoding="UTF-8"?>
<svg width="48px" height="48px" viewBox="0 0 48 48" version="1.1" xmlns="http://www.w3.org/2000/svg" xmlns:xlink="http://www.w3.org/1999/xlink">
    <!-- Generator: Sketch 54.1 (76490) - https://sketchapp.com -->
    <title>Artboard</title>
    <desc>Created with Sketch.</desc>
    <defs>
        <polygon id="path-1" points="0 28 28 28 28 0 0 0"></polygon>
    </defs>
    <g id="Artboard" stroke="none" stroke-width="1" fill="none" fill-rule="evenodd">
        <path d="M24,13.8003905 L4.6699988,37.962892 L14.2071068,47.5 L33.7928932,47.5 L43.3300012,37.962892 L24,13.8003905 Z" id="Rectangle-2" stroke="#979797" fill="#FFFFFF"></path>
        <path d="M14.662865,47.5 L33.337135,47.5 L24,14.8200275 L14.662865,47.5 Z" id="Path" stroke="#979797"></path>
        <g id="Twemoji2_1f914" transform="translate(10.000000, 0.000000)">
            <g id="g10" transform="translate(14.000000, 14.000000) scale(-1, 1) rotate(-180.000000) translate(-14.000000, -14.000000) ">
                <g id="g12">
                    <g id="g14-Clipped">
                        <mask id="mask-2" fill="white">
                            <use xlink:href="#path-1"></use>
                        </mask>
                        <g id="path18"></g>
                        <g id="g14" mask="url(#mask-2)">
                            <g transform="translate(1.555556, -0.777778)">
                                <g id="g20" transform="translate(0.000000, 3.888889)">
                                    <path d="M0,12.4444444 C0,5.57122222 5.572,0 12.4444444,0 C19.3176667,0 24.8888889,5.57122222 24.8888889,12.4444444 C24.8888889,19.3168889 19.3176667,24.8888889 12.4444444,24.8888889 C5.572,24.8888889 0,19.3168889 0,12.4444444" id="path22" fill="#FFCC4D" fill-rule="nonzero"></path>
                                </g>
                                <g id="g24" transform="translate(7.316011, 18.277778)">
                                    <path d="M3.11111111,2.33333333 C3.11111111,1.25922222 2.41422222,0.388888889 1.55555556,0.388888889 C0.696888889,0.388888889 0,1.25922222 0,2.33333333 C0,3.40666667 0.696888889,4.27777778 1.55555556,4.27777778 C2.41422222,4.27777778 3.11111111,3.40666667 3.11111111,2.33333333" id="path26" fill="#664500" fill-rule="nonzero"></path>
                                </g>
                                <g id="g28" transform="translate(15.555556, 17.500000)">
                                    <path d="M3.11111111,2.33333333 C3.11111111,1.25922222 2.415,0.388888889 1.55555556,0.388888889 C0.696888889,0.388888889 0,1.25922222 0,2.33333333 C0,3.40666667 0.696888889,4.27777778 1.55555556,4.27777778 C2.415,4.27777778 3.11111111,3.40666667 3.11111111,2.33333333" id="path30" fill="#664500" fill-rule="nonzero"></path>
                                </g>
                                <g id="g32" transform="translate(5.188478, 23.074333)">
                                    <path d="M0.777777778,0.777777778 C0.650222222,0.845444444 0.542111111,0.951222222 0.473666667,1.08733333 C0.305666667,1.421 0.442555556,1.80833333 0.779333333,1.953 C4.09733333,3.37633333 6.76744444,1.98644444 6.87944444,1.92655556 C7.21622222,1.74688889 7.35233333,1.34477778 7.18355556,1.029 C7.01555556,0.714 6.608,0.604333333 6.27122222,0.781666667 C6.17555556,0.831444444 4.06855556,1.89544444 1.38833333,0.745111111 C1.18844444,0.660333333 0.962888889,0.679 0.777777778,0.777777778" id="path34" fill="#664500" fill-rule="nonzero"></path>
                                </g>
                                <g id="g36" transform="translate(9.133211, 11.221544)">
                                    <path d="M0.777777778,2.33333333 C0.672,2.43211111 0.594222222,2.56122222 0.563111111,2.71133333 C0.486111111,3.07611111 0.717111111,3.416 1.08033333,3.46888889 C4.65188889,3.99622222 6.87633333,1.96855556 6.97044444,1.88222222 C7.25044444,1.62244444 7.27766667,1.20011111 7.03422222,0.937222222 C6.79155556,0.675888889 6.36922222,0.674333333 6.09,0.932555556 C6.00911111,1.00411111 4.24511111,2.57211111 1.35955556,2.14666667 C1.14411111,2.11477778 0.931,2.19022222 0.777777778,2.33333333" id="path38" fill="#664500" fill-rule="nonzero"></path>
                                </g>
                                <g id="g40" transform="translate(13.557211, 20.157667)">
                                    <path d="M0.777777778,0.777777778 C0.656444444,0.854 0.555333333,0.966777778 0.496222222,1.10755556 C0.350777778,1.45133333 0.514111111,1.82933333 0.859444444,1.95066667 C4.26688889,3.14533333 6.83666667,1.57733333 6.94477778,1.50966667 C7.26755556,1.30744444 7.37566667,0.897555556 7.18666667,0.593444444 C6.99844444,0.290111111 6.58311111,0.208444444 6.26033333,0.408333333 C6.167,0.465111111 4.13855556,1.66911111 1.386,0.703888889 C1.18066667,0.632333333 0.956666667,0.666555556 0.777777778,0.777777778" id="path42" fill="#664500" fill-rule="nonzero"></path>
                                </g>
                                <g id="g44" transform="translate(2.548311, 0.675267)">
                                    <path d="M9.33333333,0.777777778 C9.33333333,0.777777778 10.3172222,1.09744444 10.4447778,1.82933333 C10.5793333,2.58455556 9.95944444,2.737 9.95944444,2.737 C9.95944444,2.737 10.7691111,2.89877778 10.871,3.80722222 C10.9666667,4.66277778 10.2005556,4.86733333 10.2005556,4.86733333 C10.2005556,4.86733333 10.955,5.17844444 10.9907778,6.06433333 C11.0203333,6.81022222 10.2168889,7.175 10.2168889,7.175 C10.2168889,7.175 14.1353333,8.12388889 14.5374444,8.21722222 C14.9387778,8.31133333 15.5648889,8.69633333 15.3696667,9.53555556 C15.176,10.3755556 14.4332222,10.4051111 14.049,10.3156667 C13.6647778,10.2254444 8.80366667,9.09688889 7.12677778,8.70644444 C6.94788889,8.66522222 6.10944444,8.47155556 6.00755556,8.44666667 C5.58755556,8.34788889 5.397,8.533 5.69255556,8.84488889 C6.08844444,9.26177778 6.34044444,9.723 6.42911111,10.4883333 C6.52166667,11.2941111 6.24866667,12.2881111 6.09233333,12.6731111 C5.80144444,13.3894444 5.31066667,13.9556667 4.74366667,14.1501111 C3.85855556,14.4534444 3.23011111,13.9004444 3.54433333,12.936 C4.01411111,11.4932222 3.70688889,10.311 2.89644444,9.597 C0.991666667,7.91933333 0.105,6.72311111 0.695333333,4.17355556 C1.33855556,1.393 4.09966667,-0.396666667 6.88022222,0.247333333 C7.02722222,0.28 9.33333333,0.777777778 9.33333333,0.777777778" id="path46" fill="#F4900C" fill-rule="nonzero"></path>
                                </g>
                            </g>
                        </g>
                    </g>
                </g>
            </g>
        </g>
    </g>
</svg>